<?xml version="1.0" encoding="utf-8"?>
<COLLADA xmlns="http://www.collada.org/2005/11/COLLADASchema" version="1.4.1">
  <asset>
    <contributor>
      <authoring_tool>Fusion URDF/XACRO Exporter</authoring_tool>
    </contributor>
    <created>2026-09-16T22:18:31Z</created>
    <modified>2026-09-16T22:18:31Z</modified>
    <unit name="meter" meter="1.0"/>
    <up_axis>Z_UP</up_axis>
  </asset>
  <library_effects>
    <effect id="Aluminio_-_Pulido-effect">
      <profile_COMMON>
        <technique sid="common">
          <lambert>
            <emission><color>0 0 0 1</color></emission>
            <ambient><color>0.0000 0.0000 0.0000 1</color></ambient>
            <diffuse><color>0.9608 0.9608 0.9647 1</color></diffuse>
            <reflective><color>0 0 0 1</color></reflective>
            <transparent opaque="A_ONE"><color>1 1 1 1</color></transparent>
            <transparency><float>1</float></transparency>
          </lambert>
        </technique>
      </profile_COMMON>
    </effect>
    <effect id="Caucho_-_Suave-effect">
      <profile_COMMON>
        <technique sid="common">
          <lambert>
            <emission><color>0 0 0 1</color></emission>
            <ambient><color>0.0000 0.0000 0.0000 1</color></ambient>
            <diffuse><color>0.1529 0.1529 0.1529 1</color></diffuse>
            <reflective><color>0 0 0 1</color></reflective>
            <transparent opaque="A_ONE"><color>1 1 1 1</color></transparent>
            <transparency><float>1</float></transparency>
          </lambert>
        </technique>
      </profile_COMMON>
    </effect>
    <effect id="Pintura_-_Esmaltado_brillante__verde_-effect">
      <profile_COMMON>
        <technique sid="common">
          <lambert>
            <emission><color>0 0 0 1</color></emission>
            <ambient><color>0.0000 0.0000 0.0000 1</color></ambient>
            <diffuse><color>0.2667 0.5882 0.2824 1</color></diffuse>
            <reflective><color>0 0 0 1</color></reflective>
            <transparent opaque="A_ONE"><color>1 1 1 1</color></transparent>
            <transparency><float>1</float></transparency>
          </lambert>
        </technique>
      </profile_COMMON>
    </effect>
    <effect id="Recubrimiento_de_polvo__negro_-effect">
      <profile_COMMON>
        <technique sid="common">
          <lambert>
            <emission><color>0 0 0 1</color></emission>
            <ambient><color>0.0000 0.0000 0.0000 1</color></ambient>
            <diffuse><color>0.0980 0.0980 0.0980 1</color></diffuse>
            <reflective><color>0 0 0 1</color></reflective>
            <transparent opaque="A_ONE"><color>1 1 1 1</color></transparent>
            <transparency><float>1</float></transparency>
          </lambert>
        </technique>
      </profile_COMMON>
    </effect>
    <effect id="Recubrimiento_de_polvo__rojo_-effect">
      <profile_COMMON>
        <technique sid="common">
          <lambert>
            <emission><color>0 0 0 1</color></emission>
            <ambient><color>0.0000 0.0000 0.0000 1</color></ambient>
            <diffuse><color>0.7686 0.2078 0.1529 1</color></diffuse>
            <reflective><color>0 0 0 1</color></reflective>
            <transparent opaque="A_ONE"><color>1 1 1 1</color></transparent>
            <transparency><float>1</float></transparency>
          </lambert>
        </technique>
      </profile_COMMON>
    </effect>
  </library_effects>
  <library_materials>
    <material id="Aluminio_-_Pulido" name="Aluminio_-_Pulido">
      <instance_effect url="#Aluminio_-_Pulido-effect"/>
    </material>
    <material id="Caucho_-_Suave" name="Caucho_-_Suave">
      <instance_effect url="#Caucho_-_Suave-effect"/>
    </material>
    <material id="Pintura_-_Esmaltado_brillante__verde_" name="Pintura_-_Esmaltado_brillante_(verde)">
      <instance_effect url="#Pintura_-_Esmaltado_brillante__verde_-effect"/>
    </material>
    <material id="Recubrimiento_de_polvo__negro_" name="Recubrimiento_de_polvo_(negro)">
      <instance_effect url="#Recubrimiento_de_polvo__negro_-effect"/>
    </material>
    <material id="Recubrimiento_de_polvo__rojo_" name="Recubrimiento_de_polvo_(rojo)">
      <instance_effect url="#Recubrimiento_de_polvo__rojo_-effect"/>
    </material>
  </library_materials>
  <library_geometries>
    <geometry id="base_link-mesh" name="base_link">
      <mesh>
        <source id="base_link-mesh-positions">
          <float_array id="base_link-mesh-positions-array" count="594">0.060000 0.051000 0.112000 0.059949 0.050612 0.112000 0.059799 0.050250 0.112000 0.059561 0.049939 0.112000 0.059250 0.049701 0.112000 0.058888 0.049551 0.112000 0.058500 0.049500 0.112000 0.058112 0.049551 0.112000 0.057750 0.049701 0.112000 0.057439 0.049939 0.112000 0.057201 0.050250 0.112000 0.057051 0.050612 0.112000 0.057000 0.051000 0.112000 0.057051 0.051388 0.112000 0.057201 0.051750 0.112000 0.057439 0.052061 0.112000 0.057750 0.052299 0.112000 0.058112 0.052449 0.112000 0.058500 0.052500 0.112000 0.058888 0.052449 0.112000 0.059250 0.052299 0.112000 0.059561 0.052061 0.112000 0.059799 0.051750 0.112000 0.059949 0.051388 0.112000 0.060000 0.051000 0.100000 0.059949 0.051388 0.100000 0.059799 0.051750 0.100000 0.059561 0.052061 0.100000 0.059250 0.052299 0.100000 0.058888 0.052449 0.100000 0.058500 0.052500 0.100000 0.058112 0.052449 0.100000 0.057750 0.052299 0.100000 0.057439 0.052061 0.100000 0.057201 0.051750 0.100000 0.057051 0.051388 0.100000 0.057000 0.051000 0.100000 0.057051 0.050612 0.100000 0.057201 0.050250 0.100000 0.057439 0.049939 0.100000 0.057750 0.049701 0.100000 0.058112 0.049551 0.100000 0.058500 0.049500 0.100000 0.058888 0.049551 0.100000 0.059250 0.049701 0.100000 0.059561 0.049939 0.100000 0.059799 0.050250 0.100000 0.059949 0.050612 0.100000 0.060000 0.051000 0.106000 0.059949 0.050612 0.106000 0.059799 0.050250 0.106000 0.059561 0.049939 0.106000 0.059250 0.049701 0.106000 0.058888 0.049551 0.106000 0.058500 0.049500 0.106000 0.058112 0.049551 0.106000 0.057750 0.049701 0.106000 0.057439 0.049939 0.106000 0.057201 0.050250 0.106000 0.057051 0.050612 0.106000 0.057000 0.051000 0.106000 0.057051 0.051388 0.106000 0.057201 0.051750 0.106000 0.057439 0.052061 0.106000 0.057750 0.052299 0.106000 0.058112 0.052449 0.106000 0.058500 0.052500 0.106000 0.058888 0.052449 0.106000 0.059250 0.052299 0.106000 0.059561 0.052061 0.106000 0.059799 0.051750 0.106000 0.059949 0.051388 0.106000 0.060150 0.051000 0.100000 0.060094 0.050573 0.100000 0.059929 0.050175 0.100000 0.059667 0.049833 0.100000 0.059325 0.049571 0.100000 0.058927 0.049406 0.100000 0.058500 0.049350 0.100000 0.058073 0.049406 0.100000 0.057675 0.049571 0.100000 0.057333 0.049833 0.100000 0.057071 0.050175 0.100000 0.056906 0.050573 0.100000 0.056850 0.051000 0.100000 0.056906 0.051427 0.100000 0.057071 0.051825 0.100000 0.057333 0.052167 0.100000 0.057675 0.052429 0.100000 0.058073 0.052594 0.100000 0.058500 0.052650 0.100000 0.058927 0.052594 0.100000 0.059325 0.052429 0.100000 0.059667 0.052167 0.100000 0.059929 0.051825 0.100000 0.060094 0.051427 0.100000 0.060150 0.051000 0.102000 0.060094 0.051427 0.102000 0.059929 0.051825 0.102000 0.059667 0.052167 0.102000 0.059325 0.052429 0.102000 0.058927 0.052594 0.102000 0.058500 0.052650 0.102000 0.058073 0.052594 0.102000 0.057675 0.052429 0.102000 0.057333 0.052167 0.102000 0.057071 0.051825 0.102000 0.056906 0.051427 0.102000 0.056850 0.051000 0.102000 0.056906 0.050573 0.102000 0.057071 0.050175 0.102000 0.057333 0.049833 0.102000 0.057675 0.049571 0.102000 0.058073 0.049406 0.102000 0.058500 0.049350 0.102000 0.058927 0.049406 0.102000 0.059325 0.049571 0.102000 0.059667 0.049833 0.102000 0.059929 0.050175 0.102000 0.060094 0.050573 0.102000 0.067250 0.051000 0.102000 0.067131 0.052440 0.102000 0.066776 0.053841 0.102000 0.066195 0.055165 0.102000 0.065405 0.056374 0.102000 0.064426 0.057438 0.102000 0.063286 0.058325 0.102000 0.062015 0.059013 0.102000 0.060648 0.059482 0.102000 0.059223 0.059720 0.102000 0.057777 0.059720 0.102000 0.056352 0.059482 0.102000 0.054985 0.059013 0.102000 0.053714 0.058325 0.102000 0.052574 0.057438 0.102000 0.051595 0.056374 0.102000 0.050805 0.055165 0.102000 0.050224 0.053841 0.102000 0.049869 0.052440 0.102000 0.049750 0.051000 0.102000 0.049869 0.049560 0.102000 0.050224 0.048159 0.102000 0.050805 0.046835 0.102000 0.051595 0.045626 0.102000 0.052574 0.044562 0.102000 0.053714 0.043675 0.102000 0.054985 0.042987 0.102000 0.056352 0.042518 0.102000 0.057777 0.042280 0.102000 0.059223 0.042280 0.102000 0.060648 0.042518 0.102000 0.062015 0.042987 0.102000 0.063286 0.043675 0.102000 0.064426 0.044562 0.102000 0.065405 0.045626 0.102000 0.066195 0.046835 0.102000 0.066776 0.048159 0.102000 0.067131 0.049560 0.102000 0.116500 0.101500 0.097600 0.116500 0.101500 0.100600 0.116500 0.000500 0.100600 0.116500 0.000500 0.097600 0.000500 0.101500 0.097600 0.000500 0.101500 0.100600 0.000500 0.000500 0.097600 0.000500 0.000500 0.100600 0.117000 0.000000 0.100600 0.000000 0.000000 0.100600 0.000000 0.102000 0.100600 0.117000 0.102000 0.100600 0.000000 0.102000 0.097600 0.000000 0.000000 0.097600 0.117000 0.000000 0.097600 0.117000 0.102000 0.097600 0.116500 0.101500 0.001400 0.116500 0.101500 0.004400 0.116500 0.000500 0.004400 0.116500 0.000500 0.001400 0.000500 0.101500 0.001400 0.000500 0.101500 0.004400 0.000500 0.000500 0.001400 0.000000 0.102000 0.001400 0.000000 0.000000 0.001400 0.117000 0.000000 0.001400 0.117000 0.102000 0.001400 0.000500 0.000500 0.004400 0.117000 0.000000 0.004400 0.000000 0.000000 0.004400 0.000000 0.102000 0.004400 0.117000 0.102000 0.004400 0.117000 0.000000 0.000000 0.117000 0.102000 0.000000 0.117000 0.102000 0.102000 0.117000 0.000000 0.102000 0.000000 0.102000 0.000000 0.000000 0.102000 0.102000 0.000000 0.000000 0.000000 0.000000 0.000000 0.102000</float_array>
          <technique_common>
            <accessor source="#base_link-mesh-positions-array" count="198" stride="3">
              <param name="X" type="float"/>
              <param name="Y" type="float"/>
              <param name="Z" type="float"/>
            </accessor>
          </technique_common>
        </source>
        <source id="base_link-mesh-normals">
          <float_array id="base_link-mesh-normals-array" count="1122">0.965926 -0.258819 -0.000000 0.965926 -0.258819 -0.000000 1.000000 -0.000000 -0.000000 1.000000 -0.000000 -0.000000 0.965926 0.258819 -0.000000 0.965926 0.258819 -0.000000 0.866025 0.500000 -0.000000 0.866025 0.500000 -0.000000 0.707107 0.707107 -0.000000 0.707107 0.707107 -0.000000 0.500000 0.866025 -0.000000 0.500000 0.866025 -0.000000 0.258819 0.965926 -0.000000 0.258819 0.965926 -0.000000 -0.000000 1.000000 -0.000000 -0.000000 1.000000 -0.000000 -0.258819 0.965926 -0.000000 -0.258819 0.965926 -0.000000 -0.500000 0.866025 -0.000000 -0.500000 0.866025 -0.000000 -0.707107 0.707107 -0.000000 -0.707107 0.707107 -0.000000 -0.866025 0.500000 -0.000000 -0.866025 0.500000 -0.000000 -0.965926 0.258819 -0.000000 -0.965926 0.258819 -0.000000 -1.000000 -0.000000 0.000000 -1.000000 -0.000000 0.000000 -0.965926 -0.258819 0.000000 -0.965926 -0.258819 0.000000 -0.866025 -0.500000 0.000000 -0.866025 -0.500000 0.000000 -0.707107 -0.707107 0.000000 -0.707107 -0.707107 0.000000 -0.500000 -0.866025 0.000000 -0.500000 -0.866025 0.000000 -0.258819 -0.965926 0.000000 -0.258819 -0.965926 0.000000 -0.000000 -1.000000 0.000000 -0.000000 -1.000000 0.000000 0.258819 -0.965926 -0.000000 0.258819 -0.965926 -0.000000 0.500000 -0.866025 -0.000000 0.500000 -0.866025 -0.000000 0.707107 -0.707107 -0.000000 0.707107 -0.707107 -0.000000 0.866025 -0.500000 -0.000000 0.866025 -0.500000 -0.000000 0.965926 0.258819 -0.000000 1.000000 0.000000 -0.000000 0.965926 -0.258819 -0.000000 0.866025 -0.500000 -0.000000 0.707107 -0.707107 -0.000000 0.500000 -0.866025 -0.000000 0.258819 -0.965926 -0.000000 -0.000000 -1.000000 0.000000 -0.258819 -0.965926 0.000000 -0.500000 -0.866025 0.000000 -0.707107 -0.707107 0.000000 -0.866025 -0.500000 0.000000 -0.965926 -0.258819 0.000000 -1.000000 -0.000000 0.000000 -0.965926 0.258819 -0.000000 -0.866025 0.500000 -0.000000 -0.707107 0.707107 -0.000000 -0.500000 0.866025 -0.000000 -0.258819 0.965926 -0.000000 -0.000000 1.000000 -0.000000 0.258819 0.965926 -0.000000 0.500000 0.866025 -0.000000 0.707107 0.707107 -0.000000 0.866025 0.500000 -0.000000 0.000000 0.000000 1.000000 0.000000 0.000000 1.000000 0.000000 0.000000 1.000000 0.000000 0.000000 1.000000 0.000000 0.000000 1.000000 0.000000 0.000000 1.000000 0.000000 0.000000 1.000000 0.000000 0.000000 1.000000 0.000000 0.000000 1.000000 0.000000 0.000000 1.000000 0.000000 0.000000 1.000000 0.000000 0.000000 1.000000 0.000000 0.000000 1.000000 0.000000 0.000000 1.000000 0.000000 0.000000 1.000000 0.000000 0.000000 1.000000 0.000000 0.000000 1.000000 0.000000 0.000000 1.000000 0.000000 0.000000 1.000000 0.000000 0.000000 1.000000 0.000000 0.000000 1.000000 0.000000 0.000000 1.000000 0.000000 0.000000 1.000000 0.000000 0.000000 1.000000 -0.965926 0.258819 0.000000 -0.965926 0.258819 0.000000 -1.000000 0.000000 0.000000 -1.000000 0.000000 0.000000 -0.965926 -0.258819 -0.000000 -0.965926 -0.258819 -0.000000 -0.866025 -0.500000 -0.000000 -0.866025 -0.500000 -0.000000 -0.707107 -0.707107 -0.000000 -0.707107 -0.707107 -0.000000 -0.500000 -0.866025 -0.000000 -0.500000 -0.866025 -0.000000 -0.258819 -0.965926 -0.000000 -0.258819 -0.965926 -0.000000 0.000000 -1.000000 0.000000 0.000000 -1.000000 0.000000 0.258819 -0.965926 0.000000 0.258819 -0.965926 0.000000 0.500000 -0.866025 0.000000 0.500000 -0.866025 0.000000 0.707107 -0.707107 0.000000 0.707107 -0.707107 0.000000 0.866025 -0.500000 0.000000 0.866025 -0.500000 0.000000 0.965926 -0.258819 0.000000 0.965926 -0.258819 0.000000 1.000000 -0.000000 0.000000 1.000000 -0.000000 0.000000 0.965926 0.258819 0.000000 0.965926 0.258819 0.000000 0.866025 0.500000 0.000000 0.866025 0.500000 0.000000 0.707107 0.707107 0.000000 0.707107 0.707107 0.000000 0.500000 0.866025 0.000000 0.500000 0.866025 0.000000 0.258819 0.965926 0.000000 0.258819 0.965926 0.000000 0.000000 1.000000 0.000000 0.000000 1.000000 0.000000 -0.258819 0.965926 0.000000 -0.258819 0.965926 0.000000 -0.500000 0.866025 0.000000 -0.500000 0.866025 0.000000 -0.707107 0.707107 0.000000 -0.707107 0.707107 0.000000 -0.866025 0.500000 0.000000 -0.866025 0.500000 0.000000 0.000000 0.000000 1.000000 0.000000 0.000000 1.000000 0.000000 0.000000 1.000000 0.000000 0.000000 1.000000 0.000000 0.000000 1.000000 0.000000 0.000000 1.000000 0.000000 0.000000 1.000000 0.000000 0.000000 1.000000 0.000000 0.000000 1.000000 0.000000 0.000000 1.000000 0.000000 0.000000 1.000000 0.000000 0.000000 1.000000 0.000000 0.000000 1.000000 0.000000 0.000000 1.000000 0.000000 0.000000 1.000000 0.000000 0.000000 1.000000 0.000000 0.000000 1.000000 0.000000 0.000000 1.000000 0.000000 0.000000 1.000000 0.000000 0.000000 1.000000 0.000000 0.000000 1.000000 0.000000 0.000000 1.000000 0.000000 0.000000 1.000000 0.000000 0.000000 1.000000 0.000000 0.000000 1.000000 0.000000 0.000000 1.000000 0.000000 0.000000 1.000000 0.000000 0.000000 1.000000 0.000000 0.000000 1.000000 0.000000 0.000000 1.000000 0.000000 0.000000 1.000000 0.000000 0.000000 1.000000 0.000000 0.000000 1.000000 0.000000 0.000000 1.000000 0.000000 0.000000 1.000000 0.000000 0.000000 1.000000 0.000000 0.000000 1.000000 0.000000 0.000000 1.000000 0.000000 0.000000 1.000000 0.000000 0.000000 1.000000 0.000000 0.000000 1.000000 0.000000 0.000000 1.000000 0.000000 0.000000 1.000000 0.000000 0.000000 1.000000 0.000000 0.000000 1.000000 0.000000 0.000000 1.000000 0.000000 0.000000 1.000000 0.000000 0.000000 1.000000 0.000000 0.000000 1.000000 0.000000 0.000000 1.000000 0.000000 0.000000 1.000000 0.000000 0.000000 1.000000 0.000000 0.000000 1.000000 0.000000 0.000000 1.000000 0.000000 0.000000 1.000000 0.000000 0.000000 1.000000 0.000000 0.000000 1.000000 0.000000 0.000000 1.000000 0.000000 0.000000 1.000000 0.000000 0.000000 1.000000 0.000000 0.000000 1.000000 0.000000 0.000000 1.000000 0.000000 0.000000 1.000000 0.000000 0.000000 1.000000 0.000000 0.000000 1.000000 0.000000 0.000000 1.000000 0.000000 0.000000 1.000000 0.000000 0.000000 1.000000 0.000000 0.000000 1.000000 0.000000 0.000000 1.000000 0.000000 0.000000 1.000000 0.000000 0.000000 1.000000 0.000000 0.000000 1.000000 0.000000 0.000000 1.000000 0.000000 0.000000 1.000000 0.000000 0.000000 1.000000 0.000000 0.000000 1.000000 0.000000 0.000000 1.000000 0.000000 0.000000 1.000000 0.000000 0.000000 1.000000 0.000000 0.000000 1.000000 0.000000 0.000000 1.000000 0.000000 0.000000 1.000000 0.000000 0.000000 1.000000 0.000000 0.000000 1.000000 0.000000 0.000000 1.000000 0.000000 0.000000 1.000000 0.000000 0.000000 1.000000 0.000000 0.000000 1.000000 0.000000 0.000000 1.000000 0.000000 0.000000 1.000000 0.000000 0.000000 1.000000 0.000000 0.000000 1.000000 0.000000 0.000000 1.000000 0.000000 0.000000 1.000000 0.000000 0.000000 1.000000 0.000000 0.000000 1.000000 0.000000 0.000000 1.000000 0.000000 0.000000 1.000000 0.000000 0.000000 1.000000 0.000000 0.000000 1.000000 0.000000 0.000000 1.000000 0.000000 0.000000 1.000000 0.000000 0.000000 1.000000 0.000000 0.000000 1.000000 0.000000 0.000000 1.000000 0.000000 0.000000 1.000000 0.000000 0.000000 1.000000 0.000000 0.000000 1.000000 0.000000 0.000000 1.000000 1.000000 -0.000000 -0.000000 1.000000 -0.000000 -0.000000 1.000000 -0.000000 -0.000000 1.000000 -0.000000 -0.000000 -0.000000 1.000000 -0.000000 -0.000000 1.000000 -0.000000 -0.000000 1.000000 -0.000000 -0.000000 1.000000 -0.000000 -1.000000 -0.000000 -0.000000 -1.000000 -0.000000 -0.000000 -1.000000 -0.000000 -0.000000 -1.000000 -0.000000 -0.000000 -0.000000 0.000000 -1.000000 -0.000000 0.000000 -1.000000 -0.000000 0.000000 -1.000000 -0.000000 0.000000 -1.000000 -0.000000 0.000000 -1.000000 -0.000000 0.000000 -1.000000 -0.000000 0.000000 -1.000000 -0.000000 0.000000 -1.000000 -0.000000 -0.000000 1.000000 -0.000000 -0.000000 1.000000 -0.000000 -0.000000 1.000000 -0.000000 -0.000000 1.000000 -0.000000 -0.000000 1.000000 -0.000000 -0.000000 1.000000 -0.000000 -0.000000 1.000000 -0.000000 -0.000000 1.000000 -0.000000 -1.000000 0.000000 -0.000000 -1.000000 0.000000 -0.000000 -1.000000 0.000000 -0.000000 -1.000000 0.000000 1.000000 0.000000 0.000000 1.000000 0.000000 0.000000 1.000000 0.000000 0.000000 1.000000 0.000000 0.000000 -0.000000 1.000000 0.000000 -0.000000 1.000000 0.000000 -0.000000 1.000000 0.000000 -0.000000 1.000000 0.000000 -0.000000 -0.000000 1.000000 -0.000000 -0.000000 1.000000 -0.000000 -0.000000 1.000000 -0.000000 -0.000000 1.000000 -0.000000 -0.000000 1.000000 -0.000000 -0.000000 1.000000 -0.000000 -0.000000 1.000000 -0.000000 -0.000000 1.000000 -1.000000 -0.000000 0.000000 -1.000000 -0.000000 0.000000 -1.000000 -0.000000 0.000000 -1.000000 -0.000000 0.000000 -0.000000 0.000000 -1.000000 -0.000000 0.000000 -1.000000 -0.000000 0.000000 -1.000000 -0.000000 0.000000 -1.000000 -0.000000 0.000000 -1.000000 -0.000000 0.000000 -1.000000 -0.000000 0.000000 -1.000000 -0.000000 0.000000 -1.000000 -0.000000 -1.000000 -0.000000 -0.000000 -1.000000 -0.000000 -0.000000 -1.000000 -0.000000 -0.000000 -1.000000 -0.000000 1.000000 -0.000000 -0.000000 1.000000 -0.000000 -0.000000 1.000000 -0.000000 -0.000000 1.000000 -0.000000 -0.000000 1.000000 -0.000000 -0.000000 1.000000 -0.000000 -0.000000 1.000000 -0.000000 -0.000000 1.000000 -0.000000 -0.000000 1.000000 -0.000000 -0.000000 1.000000 -0.000000 -0.000000 1.000000 -0.000000 -0.000000 1.000000 -0.000000 -0.000000 -0.000000 1.000000 -0.000000 -0.000000 1.000000 -0.000000 -0.000000 1.000000 -0.000000 -0.000000 1.000000 -0.000000 -0.000000 1.000000 -0.000000 -0.000000 1.000000 -0.000000 -0.000000 1.000000 -0.000000 -0.000000 1.000000 -0.000000 -1.000000 -0.000000 -0.000000 -1.000000 -0.000000 -0.000000 -1.000000 -0.000000 -0.000000 -1.000000 -0.000000 -0.000000 -1.000000 -0.000000 -0.000000 -1.000000 -0.000000 -0.000000 -1.000000 -0.000000 -0.000000 -1.000000 -0.000000 -0.000000 -0.000000 -1.000000 -0.000000 -0.000000 -1.000000 -0.000000 -0.000000 -1.000000 -0.000000 -0.000000 -1.000000 -0.000000 -0.000000 -1.000000 -0.000000 -0.000000 -1.000000 -0.000000 -0.000000 -1.000000 -0.000000 -0.000000 -1.000000 -0.000000 0.000000 0.000000 1.000000 0.000000 0.000000 1.000000 0.000000 0.000000 1.000000 0.000000 0.000000 1.000000 -0.000000 -0.000000 -1.000000 -0.000000 -0.000000 -1.000000 -0.000000 -0.000000 -1.000000 -0.000000 -0.000000 -1.000000 -0.000000 -1.000000 -0.000000 -0.000000 -1.000000 -0.000000 -0.000000 -1.000000 -0.000000 -0.000000 -1.000000 -0.000000 -1.000000 -0.000000 -0.000000 -1.000000 -0.000000 -0.000000 -1.000000 -0.000000 -0.000000 -1.000000 -0.000000 -0.000000 -0.000000 1.000000 -0.000000 -0.000000 1.000000 -0.000000 -0.000000 1.000000 -0.000000 -0.000000 1.000000 -0.000000</float_array>
          <technique_common>
            <accessor source="#base_link-mesh-normals-array" count="374" stride="3">
              <param name="X" type="float"/>
              <param name="Y" type="float"/>
              <param name="Z" type="float"/>
            </accessor>
          </technique_common>
        </source>
        <vertices id="base_link-mesh-vertices">
          <input semantic="POSITION" source="#base_link-mesh-positions"/>
        </vertices>
        <triangles material="Aluminio_-_Pulido" count="180">
          <input semantic="VERTEX" source="#base_link-mesh-vertices" offset="0"/>
          <input semantic="NORMAL" source="#base_link-mesh-normals" offset="1"/>
          <p>1 0 49 1 0 2 0 2 49 1 48 3 0 2 48 3 23 4 23 4 48 3 71 5 23 4 71 5 22 6 22 6 71 5 70 7 22 6 70 7 21 8 21 8 70 7 69 9 21 8 69 9 20 10 20 10 69 9 68 11 20 10 68 11 19 12 19 12 68 11 67 13 19 12 67 13 18 14 18 14 67 13 66 15 18 14 66 15 17 16 17 16 66 15 65 17 17 16 65 17 16 18 16 18 65 17 64 19 16 18 64 19 15 20 15 20 64 19 63 21 15 20 63 21 14 22 14 22 63 21 62 23 14 22 62 23 13 24 13 24 62 23 61 25 13 24 61 25 12 26 12 26 61 25 60 27 12 26 60 27 11 28 11 28 60 27 59 29 11 28 59 29 10 30 10 30 59 29 58 31 10 30 58 31 9 32 9 32 58 31 57 33 9 32 57 33 8 34 8 34 57 33 56 35 8 34 56 35 7 36 7 36 56 35 55 37 7 36 55 37 6 38 6 38 55 37 54 39 6 38 54 39 5 40 5 40 54 39 53 41 5 40 53 41 4 42 4 42 53 41 52 43 4 42 52 43 3 44 3 44 52 43 51 45 3 44 51 45 2 46 2 46 51 45 50 47 2 46 50 47 1 0 1 0 50 47 49 1 25 48 71 5 24 49 24 49 71 5 48 3 24 49 48 3 47 50 47 50 48 3 49 1 47 50 49 1 46 51 46 51 49 1 50 47 46 51 50 47 45 52 45 52 50 47 51 45 45 52 51 45 44 53 44 53 51 45 52 43 44 53 52 43 43 54 43 54 52 43 53 41 43 54 53 41 42 55 42 55 53 41 54 39 42 55 54 39 41 56 41 56 54 39 55 37 41 56 55 37 40 57 40 57 55 37 56 35 40 57 56 35 39 58 39 58 56 35 57 33 39 58 57 33 38 59 38 59 57 33 58 31 38 59 58 31 37 60 37 60 58 31 59 29 37 60 59 29 36 61 36 61 59 29 60 27 36 61 60 27 35 62 35 62 60 27 61 25 35 62 61 25 34 63 34 63 61 25 62 23 34 63 62 23 33 64 33 64 62 23 63 21 33 64 63 21 32 65 32 65 63 21 64 19 32 65 64 19 31 66 31 66 64 19 65 17 31 66 65 17 30 67 30 67 65 17 66 15 30 67 66 15 29 68 29 68 66 15 67 13 29 68 67 13 28 69 28 69 67 13 68 11 28 69 68 11 27 70 27 70 68 11 69 9 27 70 69 9 26 71 26 71 69 9 70 7 26 71 70 7 25 48 25 48 70 7 71 5 23 72 13 73 0 74 0 74 13 73 12 75 0 74 12 75 1 76 1 76 12 75 11 77 1 76 11 77 2 78 2 78 11 77 10 79 2 78 10 79 3 80 3 80 10 79 9 81 3 80 9 81 4 82 4 82 9 81 8 83 4 82 8 83 5 84 5 84 8 83 7 85 5 84 7 85 6 86 13 73 23 72 14 87 14 87 23 72 22 88 14 87 22 88 15 89 15 89 22 88 21 90 15 89 21 90 16 91 16 91 21 90 20 92 16 91 20 92 17 93 17 93 20 92 19 94 17 93 19 94 18 95 119 192 157 193 96 194 96 194 157 193 120 195 96 194 120 195 121 196 157 193 119 192 156 197 156 197 119 192 118 198 156 197 118 198 155 199 155 199 118 198 154 200 154 200 118 198 117 201 154 200 117 201 153 202 153 202 117 201 152 203 152 203 117 201 116 204 152 203 116 204 151 205 151 205 116 204 115 206 151 205 115 206 150 207 150 207 115 206 149 208 149 208 115 206 114 209 149 208 114 209 148 210 148 210 114 209 113 211 148 210 113 211 147 212 147 212 113 211 146 213 146 213 113 211 112 214 146 213 112 214 145 215 145 215 112 214 111 216 145 215 111 216 144 217 144 217 111 216 143 218 143 218 111 216 110 219 143 218 110 219 142 220 142 220 110 219 141 221 141 221 110 219 109 222 141 221 109 222 140 223 140 223 109 222 108 224 140 223 108 224 139 225 139 225 108 224 138 226 138 226 108 224 107 227 138 226 107 227 137 228 137 228 107 227 106 229 137 228 106 229 136 230 136 230 106 229 135 231 135 231 106 229 105 232 135 231 105 232 134 233 134 233 105 232 133 234 133 234 105 232 104 235 133 234 104 235 132 236 132 236 104 235 103 237 132 236 103 237 131 238 131 238 103 237 130 239 130 239 103 237 102 240 130 239 102 240 129 241 129 241 102 240 101 242 129 241 101 242 128 243 128 243 101 242 127 244 127 244 101 242 100 245 127 244 100 245 126 246 126 246 100 245 99 247 126 246 99 247 125 248 125 248 99 247 124 249 124 249 99 247 98 250 124 249 98 250 123 251 123 251 98 250 122 252 122 252 98 250 97 253 122 252 97 253 121 196 121 196 97 253 96 194</p>
        </triangles>
        <triangles material="Caucho_-_Suave" count="104">
          <input semantic="VERTEX" source="#base_link-mesh-vertices" offset="0"/>
          <input semantic="NORMAL" source="#base_link-mesh-normals" offset="1"/>
          <p>73 96 119 97 72 98 72 98 119 97 96 99 72 98 96 99 95 100 95 100 96 99 97 101 95 100 97 101 94 102 94 102 97 101 98 103 94 102 98 103 93 104 93 104 98 103 99 105 93 104 99 105 92 106 92 106 99 105 100 107 92 106 100 107 91 108 91 108 100 107 101 109 91 108 101 109 90 110 90 110 101 109 102 111 90 110 102 111 89 112 89 112 102 111 103 113 89 112 103 113 88 114 88 114 103 113 104 115 88 114 104 115 87 116 87 116 104 115 105 117 87 116 105 117 86 118 86 118 105 117 106 119 86 118 106 119 85 120 85 120 106 119 107 121 85 120 107 121 84 122 84 122 107 121 108 123 84 122 108 123 83 124 83 124 108 123 109 125 83 124 109 125 82 126 82 126 109 125 110 127 82 126 110 127 81 128 81 128 110 127 111 129 81 128 111 129 80 130 80 130 111 129 112 131 80 130 112 131 79 132 79 132 112 131 113 133 79 132 113 133 78 134 78 134 113 133 114 135 78 134 114 135 77 136 77 136 114 135 115 137 77 136 115 137 76 138 76 138 115 137 116 139 76 138 116 139 75 140 75 140 116 139 117 141 75 140 117 141 74 142 74 142 117 141 118 143 74 142 118 143 73 96 73 96 118 143 119 97 25 144 24 145 72 146 72 146 24 145 47 147 72 146 47 147 73 148 73 148 47 147 46 149 73 148 46 149 74 150 74 150 46 149 45 151 74 150 45 151 75 152 75 152 45 151 44 153 75 152 44 153 76 154 76 154 44 153 43 155 76 154 43 155 77 156 77 156 43 155 42 157 77 156 42 157 78 158 78 158 42 157 79 159 79 159 42 157 41 160 79 159 41 160 80 161 80 161 41 160 40 162 80 161 40 162 81 163 81 163 40 162 39 164 81 163 39 164 82 165 82 165 39 164 38 166 82 165 38 166 83 167 83 167 38 166 37 168 83 167 37 168 84 169 84 169 37 168 36 170 84 169 36 170 85 171 85 171 36 170 35 172 85 171 35 172 34 173 85 171 34 173 86 174 86 174 34 173 33 175 86 174 33 175 87 176 87 176 33 175 32 177 87 176 32 177 88 178 88 178 32 177 31 179 88 178 31 179 89 180 89 180 31 179 30 181 89 180 30 181 90 182 90 182 30 181 91 183 91 183 30 181 29 184 91 183 29 184 92 185 92 185 29 184 28 186 92 185 28 186 93 187 93 187 28 186 27 188 93 187 27 188 94 189 94 189 27 188 26 190 94 189 26 190 95 191 95 191 26 190 25 144 95 191 25 144 72 146 167 266 165 267 166 268 166 268 165 267 160 269 166 268 160 269 169 270 169 270 160 269 159 271 169 270 159 271 163 272 165 267 167 266 163 272 163 272 167 266 168 273 163 272 168 273 169 270</p>
        </triangles>
        <triangles material="Pintura_-_Esmaltado_brillante__verde_" count="8">
          <input semantic="VERTEX" source="#base_link-mesh-vertices" offset="0"/>
          <input semantic="NORMAL" source="#base_link-mesh-normals" offset="1"/>
          <p>158 254 159 255 161 256 161 256 159 255 160 257 162 258 163 259 158 260 158 260 163 259 159 261 164 262 165 263 162 264 162 264 165 263 163 265 161 282 160 283 164 284 164 284 160 283 165 285</p>
        </triangles>
        <triangles material="Recubrimiento_de_polvo__negro_" count="92">
          <input semantic="VERTEX" source="#base_link-mesh-vertices" offset="0"/>
          <input semantic="NORMAL" source="#base_link-mesh-normals" offset="1"/>
          <p>164 274 171 275 161 276 161 276 171 275 172 277 161 276 172 277 158 278 158 278 172 277 173 279 158 278 173 279 162 280 162 280 173 279 170 281 162 280 170 281 171 275 164 274 162 280 171 275 180 294 182 295 177 296 177 296 182 295 183 297 177 296 183 297 174 298 174 298 183 297 184 299 174 298 184 299 178 300 178 300 184 299 181 301 178 300 181 301 182 295 180 294 178 300 182 295 187 306 185 307 186 308 186 308 185 307 176 309 186 308 176 309 189 310 189 310 176 309 175 311 189 310 175 311 179 312 185 307 187 306 179 312 179 312 187 306 188 313 179 312 188 313 189 310 183 318 190 319 184 320 184 320 190 319 191 321 172 322 186 323 173 324 173 324 186 323 189 325 169 326 192 327 166 328 166 328 192 327 193 329 184 330 191 331 181 332 181 332 191 331 194 333 168 334 195 335 169 336 169 336 195 335 192 337 170 338 188 339 171 340 171 340 188 339 187 341 181 342 194 343 182 344 182 344 194 343 196 345 182 346 196 347 183 348 183 348 196 347 190 349 171 350 187 351 172 352 172 352 187 351 186 353 157 193 193 354 120 195 120 195 193 354 192 355 120 195 192 355 121 196 121 196 192 355 122 252 122 252 192 355 123 251 123 251 192 355 124 249 124 249 192 355 125 248 125 248 192 355 126 246 126 246 192 355 127 244 127 244 192 355 128 243 128 243 192 355 129 241 129 241 192 355 130 239 130 239 192 355 195 356 130 239 195 356 131 238 131 238 195 356 132 236 132 236 195 356 133 234 133 234 195 356 134 233 134 233 195 356 135 231 135 231 195 356 136 230 136 230 195 356 137 228 137 228 195 356 138 226 138 226 195 356 139 225 139 225 195 356 197 357 139 225 197 357 140 223 140 223 197 357 141 221 141 221 197 357 142 220 142 220 197 357 143 218 143 218 197 357 144 217 144 217 197 357 145 215 145 215 197 357 146 213 146 213 197 357 147 212 147 212 197 357 148 210 148 210 197 357 193 354 148 210 193 354 149 208 149 208 193 354 150 207 150 207 193 354 151 205 151 205 193 354 152 203 152 203 193 354 153 202 153 202 193 354 154 200 154 200 193 354 155 199 155 199 193 354 156 197 156 197 193 354 157 193 191 358 190 359 194 360 194 360 190 359 196 361 166 362 193 363 167 364 167 364 193 363 197 365 167 366 197 367 168 368 168 368 197 367 195 369 173 370 189 371 170 372 170 372 189 371 188 373</p>
        </triangles>
        <triangles material="Recubrimiento_de_polvo__rojo_" count="8">
          <input semantic="VERTEX" source="#base_link-mesh-vertices" offset="0"/>
          <input semantic="NORMAL" source="#base_link-mesh-normals" offset="1"/>
          <p>174 286 175 287 177 288 177 288 175 287 176 289 178 290 179 291 174 292 174 292 179 291 175 293 180 302 185 303 178 304 178 304 185 303 179 305 177 314 176 315 180 316 180 316 176 315 185 317</p>
        </triangles>
      </mesh>
    </geometry>
  </library_geometries>
  <library_visual_scenes>
    <visual_scene id="Scene" name="Scene">
      <node id="base_link-node" name="base_link" type="NODE">
        <instance_geometry url="#base_link-mesh">
          <bind_material>
            <technique_common>
              <instance_material symbol="Aluminio_-_Pulido" target="#Aluminio_-_Pulido"/>
              <instance_material symbol="Caucho_-_Suave" target="#Caucho_-_Suave"/>
              <instance_material symbol="Pintura_-_Esmaltado_brillante__verde_" target="#Pintura_-_Esmaltado_brillante__verde_"/>
              <instance_material symbol="Recubrimiento_de_polvo__negro_" target="#Recubrimiento_de_polvo__negro_"/>
              <instance_material symbol="Recubrimiento_de_polvo__rojo_" target="#Recubrimiento_de_polvo__rojo_"/>
            </technique_common>
          </bind_material>
        </instance_geometry>
      </node>
    </visual_scene>
  </library_visual_scenes>
  <scene>
    <instance_visual_scene url="#Scene"/>
  </scene>
</COLLADA>
